custom-analysis
version=1
nRows=8
nColumns=42
inDegrees=no

This file contains tibia displacement and acting force.

Units are S.I. units (seconds, meters, Newtons, ...)
Angles are in degrees.

endheader
time	APT	SIT	knee_angle	aACL_R_force	pACL_R_force	aPCL_R_force	pPCL_R_force	aMCL_R_force	mMCL_R_force	pMCL_R_force	aLCL_R_force	mLCL_R_force	pLCL_R_force	aACL_R_length	pACL_R_length	aPCL_R_length	pPCL_R_length	aMCL_R_length	mMCL_R_length	pMCL_R_length	aLCL_R_length	mLCL_R_length	pLCL_R_length	aACL_R_strain	pACL_R_strain	aPCL_R_strain	pPCL_R_strain	aMCL_R_strain	mMCL_R_strain	pMCL_R_strain	aLCL_R_strain	mLCL_R_strain	pLCL_R_strain	femur_lat_meniscii_force_r	femur_lat_meniscii_torque_r	femur_med_meniscii_force_r	femur_med_meniscii_torque_r	femur_lat_tibia_force_r	femur_lat_tibia_torque_r	femur_med_tibia_force_r	femur_med_tibia_torque_r
      0.08995478	      0.00156690	     -0.00021362	     60.00037120	      0.00000000	      0.00000000	    682.55828443	    283.62716381	     23.99341121	      4.81624934	      0.00000000	      0.00000000	      0.00000000	      0.00000000	      0.03007460	      0.02313179	      0.03559444	      0.03232736	      0.06118609	      0.06000914	      0.05655433	      0.05291416	      0.04809841	      0.04362829	     -0.03002371	     -0.08781632	      0.14468877	      0.07443430	      0.05444173	      0.00360641	     -0.06872733	     -0.05471948	     -0.14595872	     -0.16648756	    163.44266966	     64.24119301	    107.79276466	     43.77816520	    124.07916965	      4.60410452	    610.82239568	     11.29556297
      0.09102545	      0.00157478	     -0.00021304	     60.00037120	      0.00000000	      0.00000000	    681.15032981	    283.04456373	     24.46806221	      5.16407785	      0.00000000	      0.00000000	      0.00000000	      0.00000000	      0.03008635	      0.02314169	      0.03558527	      0.03232050	      0.06119264	      0.06001638	      0.05656137	      0.05289348	      0.04807707	      0.04360560	     -0.02964489	     -0.08742619	      0.14439388	      0.07420626	      0.05455462	      0.00372757	     -0.06861131	     -0.05508877	     -0.14633756	     -0.16692103	    161.52330732	     63.52738125	    105.91371755	     43.03004760	    131.86042629	      4.89149723	    596.29568815	     10.98396957
      0.09264733	      0.00158685	     -0.00021355	     60.00037120	      0.00000000	      0.00000000	    678.32256431	    280.05827716	     23.51385060	      3.95897446	      0.00000000	      0.00000000	      0.00000000	      0.00000000	      0.03010606	      0.02315889	      0.03557217	      0.03231064	      0.06120318	      0.06002781	      0.05657234	      0.05286464	      0.04804724	      0.04357374	     -0.02900915	     -0.08674786	      0.14397252	      0.07387853	      0.05473623	      0.00391864	     -0.06843063	     -0.05560411	     -0.14686726	     -0.16752980	    165.88269135	     65.21942837	    111.43494944	     45.27125009	    142.51284422	      5.27879912	    589.26719779	     10.86725280
      0.09378874	      0.00159585	     -0.00021320	     60.00037120	      0.00000000	      0.00000000	    677.26555660	    280.63917702	     24.86923694	      5.19652128	      0.00000000	      0.00000000	      0.00000000	      0.00000000	      0.03011980	      0.02317088	      0.03556202	      0.03230258	      0.06120951	      0.06003460	      0.05657872	      0.05284453	      0.04802646	      0.04355157	     -0.02856583	     -0.08627488	      0.14364608	      0.07361069	      0.05484535	      0.00403218	     -0.06832568	     -0.05596332	     -0.14723617	     -0.16795338	    161.95740813	     63.65247116	    105.36503337	     42.82050819	    147.05453493	      5.44897772	    572.01227066	     10.54593546
      0.09493016	      0.00160502	     -0.00021408	     60.00037120	      0.00000000	      0.00000000	    675.43161009	    278.80688723	     24.39263852	      4.53590588	      0.00000000	      0.00000000	      0.00000000	      0.00000000	      0.03013435	      0.02318374	      0.03555302	      0.03229550	      0.06121675	      0.06004219	      0.05658585	      0.05282660	      0.04800789	      0.04353163	     -0.02809674	     -0.08576779	      0.14335658	      0.07337533	      0.05497015	      0.00415921	     -0.06820832	     -0.05628361	     -0.14756597	     -0.16833436	    165.02847828	     64.86443259	    108.63109483	     44.14846508	    152.12759601	      5.63954397	    567.22113927	     10.45839900
      0.09642737	      0.00161768	     -0.00021483	     60.00037120	      0.00000000	      0.00000000	    673.73028324	    278.31771685	     25.15448324	      5.09856362	      0.00000000	      0.00000000	      0.00000000	      0.00000000	      0.03015295	      0.02320006	      0.03554079	      0.03228552	      0.06122550	      0.06005118	      0.05659413	      0.05280413	      0.04798462	      0.04350664	     -0.02749686	     -0.08512411	      0.14296333	      0.07304372	      0.05512089	      0.00430951	     -0.06807193	     -0.05668503	     -0.14797918	     -0.16881179	    163.17398331	     64.14282018	    107.96660144	     43.87562619	    156.02728629	      5.79055789	    552.44763478	     10.16388354
      0.09768078	      0.00162859	     -0.00021646	     60.00037120	      0.00000000	      0.00000000	    671.73642771	    276.05966288	     24.42841794	      4.15497532	      0.00000000	      0.00000000	      0.00000000	      0.00000000	      0.03016886	      0.02321408	      0.03553159	      0.03227797	      0.06123351	      0.06005922	      0.05660151	      0.05278772	      0.04796758	      0.04348823	     -0.02698367	     -0.08457120	      0.14266761	      0.07279247	      0.05525886	      0.00444392	     -0.06795041	     -0.05697815	     -0.14828168	     -0.16916346	    166.13070722	     65.28001301	    115.50306946	     46.92255754	    159.53727786	      5.92066159	    549.19846473	     10.08992751
      0.09893419	      0.00164022	     -0.00021737	     60.00037120	      0.00000000	      0.00000000	    670.35099087	    275.63303655	     25.24086889	      4.79946801	      0.00000000	      0.00000000	      0.00000000	      0.00000000	      0.03018430	      0.02322755	      0.03552154	      0.03226933	      0.06124054	      0.06006608	      0.05660762	      0.05277165	      0.04795092	      0.04347024	     -0.02648558	     -0.08404022	      0.14234421	      0.07250543	      0.05538005	      0.00455869	     -0.06784973	     -0.05726524	     -0.14857761	     -0.16950705	    160.44159456	     62.96525635	    112.86862805	     45.85994818	    160.20431533	      5.94695291	    538.16162319	      9.90646967
